<?xml version="1.0" standalone="no"?><!-- Generator: Gravit.io --><svg xmlns="http://www.w3.org/2000/svg" xmlns:xlink="http://www.w3.org/1999/xlink" style="isolation:isolate" viewBox="0 0 444.193 83.177" width="444.193" height="83.177"><path d=" M 37.411 72.951 Q 46.203 72.951 51.69 67.402 Q 57.176 61.853 57.176 52.999 Q 57.176 44.332 51.596 38.72 Q 46.016 33.109 37.411 33.109 Q 28.744 33.109 23.226 38.689 Q 17.708 44.27 17.708 52.999 Q 17.708 61.728 23.226 67.34 Q 28.744 72.951 37.411 72.951 L 37.411 72.951 Z  M 17.957 2.556 L 17.957 32.984 Q 21.449 28.619 26.687 26.312 Q 31.924 24.005 38.533 24.005 Q 51.066 24.005 59.421 32.454 Q 67.776 40.903 67.776 53.373 Q 67.776 65.656 59.203 74.198 Q 50.63 82.741 38.284 82.741 Q 31.737 82.741 26.874 80.434 Q 22.01 78.127 18.893 73.45 L 18.893 78.438 Q 18.893 80.122 18.3 80.87 Q 17.708 81.618 16.336 81.618 L 4.926 81.618 Q 2.494 81.618 1.309 80.496 Q 0.125 79.374 0.125 77.129 Q 0.125 74.635 1.559 73.731 Q 2.993 72.827 7.233 72.827 L 8.542 72.827 L 8.542 8.979 L 7.358 8.979 Q 3.118 8.979 1.559 7.981 Q 0 6.983 0 4.489 Q 0 2.245 1.247 1.122 Q 2.494 0 4.926 0 L 14.403 0 Q 16.274 0 17.116 0.624 Q 17.957 1.247 17.957 2.556 L 17.957 2.556 Z  M 106.497 72.827 L 106.497 8.979 L 95.897 8.979 Q 89.849 8.979 88.321 8.012 Q 86.794 7.046 86.794 4.489 Q 86.794 2.245 88.072 1.122 Q 89.35 0 91.782 0 L 112.358 0 Q 114.041 0 114.976 0.686 Q 115.912 1.372 115.912 2.556 L 115.912 72.827 L 135.49 72.827 Q 137.86 72.827 138.951 73.856 Q 140.042 74.884 140.042 77.129 Q 140.042 79.685 138.982 80.652 Q 137.922 81.618 134.991 81.618 L 88.976 81.618 Q 86.544 81.618 85.266 80.496 Q 83.988 79.374 83.988 77.129 Q 83.988 74.947 85.297 73.887 Q 86.606 72.827 89.225 72.827 L 106.497 72.827 Z  M 187.304 74.386 Q 196.907 74.386 203.048 68.315 Q 209.19 62.244 209.19 52.843 Q 209.19 43.441 203.017 37.309 Q 196.844 31.176 187.304 31.176 Q 177.765 31.176 171.623 37.309 Q 165.481 43.441 165.481 52.843 Q 165.481 62.307 171.592 68.346 Q 177.702 74.386 187.304 74.386 L 187.304 74.386 Z  M 220.039 52.874 Q 220.039 66.217 210.936 74.697 Q 201.832 83.177 187.304 83.177 Q 172.839 83.177 163.735 74.697 Q 154.632 66.217 154.632 52.874 Q 154.632 39.531 163.735 31.082 Q 172.839 22.634 187.304 22.634 Q 201.77 22.634 210.904 31.113 Q 220.039 39.593 220.039 52.874 Z  M 282.702 27.746 L 282.702 27.497 Q 282.702 25.439 283.887 24.473 Q 285.072 23.507 287.566 23.507 Q 290.122 23.507 291.089 25.003 Q 292.055 26.499 292.055 31.176 L 292.055 42.773 Q 292.055 45.08 290.871 46.234 Q 289.686 47.387 287.316 47.387 Q 285.633 47.387 284.417 46.421 Q 283.201 45.454 281.455 42.399 Q 278.463 37.349 274.191 34.761 Q 269.92 32.173 264.371 32.173 Q 254.644 32.173 248.565 37.91 Q 242.486 43.646 242.486 52.75 Q 242.486 62.04 248.315 67.932 Q 254.145 73.824 263.311 73.824 Q 267.489 73.824 271.261 72.671 Q 275.033 71.517 278.4 69.21 Q 279.585 68.462 281.58 66.903 Q 285.633 63.599 287.94 63.599 Q 289.873 63.599 291.089 64.815 Q 292.305 66.03 292.305 67.963 Q 292.305 72.889 282.983 78.033 Q 273.661 83.177 263.186 83.177 Q 249.656 83.177 240.646 74.51 Q 231.636 65.843 231.636 52.874 Q 231.636 39.905 240.615 31.207 Q 249.594 22.509 263.062 22.509 Q 267.8 22.509 272.57 23.787 Q 277.34 25.065 282.702 27.746 L 282.702 27.746 Z  M 340.565 74.386 Q 350.167 74.386 356.309 68.315 Q 362.45 62.244 362.45 52.843 Q 362.45 43.441 356.277 37.309 Q 350.105 31.176 340.565 31.176 Q 331.025 31.176 324.883 37.309 Q 318.742 43.441 318.742 52.843 Q 318.742 62.307 324.852 68.346 Q 330.963 74.386 340.565 74.386 L 340.565 74.386 Z  M 373.299 52.874 Q 373.299 66.217 364.196 74.697 Q 355.093 83.177 340.565 83.177 Q 326.099 83.177 316.996 74.697 Q 307.893 66.217 307.893 52.874 Q 307.893 39.531 316.996 31.082 Q 326.099 22.634 340.565 22.634 Q 355.03 22.634 364.165 31.113 Q 373.299 39.593 373.299 52.874 L 373.299 52.874 Z  M 390.01 77.129 L 390.01 66.03 Q 390.01 63.287 391.038 62.102 Q 392.067 60.918 394.374 60.918 Q 396.931 60.918 398.427 64.409 Q 399.425 66.529 400.235 67.589 Q 402.854 70.956 407.967 72.983 Q 413.08 75.009 419.253 75.009 Q 425.862 75.009 429.852 72.328 Q 433.843 69.647 433.843 65.282 Q 433.843 60.855 430.632 58.985 Q 427.421 57.114 419.627 57.114 L 416.197 57.114 Q 403.478 57.114 396.806 52.687 Q 390.134 48.26 390.134 39.843 Q 390.134 31.612 396.65 27.061 Q 403.166 22.509 414.95 22.509 Q 419.751 22.509 424.74 23.85 Q 429.728 25.19 429.977 25.19 Q 430.663 25.19 432.596 23.974 Q 434.529 22.758 436.399 22.758 Q 438.519 22.758 439.548 24.317 Q 440.577 25.876 440.577 28.994 L 440.577 36.289 Q 440.577 39.593 439.579 41.059 Q 438.582 42.524 436.399 42.524 Q 434.529 42.524 431.785 39.344 Q 429.852 37.162 428.605 36.039 Q 425.301 32.984 421.56 31.643 Q 417.818 30.303 412.768 30.303 Q 406.907 30.303 403.322 32.891 Q 399.737 35.478 399.737 39.469 Q 399.737 43.397 403.415 45.08 Q 407.094 46.764 419.253 47.013 Q 432.222 47.325 438.207 51.534 Q 444.193 55.742 444.193 64.534 Q 444.193 72.951 437.584 78.002 Q 430.975 83.052 419.751 83.052 Q 416.197 83.052 411.833 82.398 Q 407.468 81.743 400.859 80.184 Q 398.677 81.618 397.118 82.335 Q 395.559 83.052 394.499 83.052 Q 392.317 83.052 391.163 81.525 Q 390.01 79.997 390.01 77.129 L 390.01 77.129 Z " fill-rule="evenodd" fill="rgb(70,70,70)"/></svg>